<svg version="1.1" xmlns="http://www.w3.org/2000/svg" xmlns:xlink="http://www.w3.org/1999/xlink" width="115.88271" height="115.88272" viewBox="0,0,115.88271,115.88272"><defs><linearGradient x1="194" y1="179.9743" x2="286" y2="179.9743" gradientUnits="userSpaceOnUse" id="color-1"><stop offset="0" stop-color="#66d6ff"/><stop offset="1" stop-color="#0088ff"/></linearGradient><linearGradient x1="194" y1="179.99994" x2="286" y2="179.99994" gradientUnits="userSpaceOnUse" id="color-2"><stop offset="0" stop-color="#66d6ff"/><stop offset="1" stop-color="#0088ff"/></linearGradient><linearGradient x1="194" y1="179.99994" x2="286" y2="179.99994" gradientUnits="userSpaceOnUse" id="color-3"><stop offset="0" stop-color="#66d6ff"/><stop offset="1" stop-color="#0088ff"/></linearGradient><linearGradient x1="194" y1="179.99994" x2="286" y2="179.99994" gradientUnits="userSpaceOnUse" id="color-4"><stop offset="0" stop-color="#66d6ff"/><stop offset="1" stop-color="#0088ff"/></linearGradient></defs><g transform="translate(-182.05864,-122.05864)"><g data-paper-data="{&quot;isPaintingLayer&quot;:true}" fill-rule="nonzero" stroke="none" stroke-width="0" stroke-linecap="butt" stroke-linejoin="miter" stroke-miterlimit="10" stroke-dasharray="" stroke-dashoffset="0" style="mix-blend-mode: normal"><path d="M182.05864,227.03795c0,-24.10551 0,-82.29438 0,-95.60324c0,-5.46291 3.83354,-9.37607 9.23442,-9.37607c12.97525,0 71.36357,0 96.3275,0c7.6439,0 10.32079,4.01322 10.32079,10.10034c0,13.78179 0,71.89595 0,95.60324c0,6.71608 -4.03756,10.17914 -9.59652,10.17914c-13.29332,0 -72.0072,0 -96.3275,0c-7.01315,0 -9.95868,-4.18371 -9.95868,-10.9034z" fill="#ffffff"/><path d="M194,179.05801c0,0 0,-32.01428 0,-37.63994c0,-4.33704 3.04347,-7.44372 7.33126,-7.44372c5.50087,0 37.66127,0 37.66127,0l0.0093,45.01461z" fill="url(#color-1)"/><path d="M194,217.34372c0,-8.60999 0,-36.32151 0,-36.32151l44.9619,0.04208l0.01923,44.9357c0,0 -28.32452,0 -37.07486,0c-5.56778,0 -7.90626,-3.32147 -7.90626,-8.65628z" fill="url(#color-2)"/><path d="M286,181.01444c0,0 0,28.22898 0,36.90428c0,5.33194 -3.20544,8.08128 -7.61874,8.08128c-5.60084,0 -37.36355,0 -37.36355,0l-0.01641,-44.97362z" fill="url(#color-3)"/><path d="M241.0141,134c0,0 27.91095,0 36.79216,0c6.06854,0 8.19374,3.18612 8.19374,8.01872c0,5.73179 0,36.92833 0,36.92833l-44.95731,0.03638z" fill="url(#color-4)"/></g></g></svg>