<svg version="1.1" xmlns="http://www.w3.org/2000/svg" xmlns:xlink="http://www.w3.org/1999/xlink" width="359.21143" height="360" viewBox="0,0,359.21143,360"><defs><linearGradient x1="194" y1="179.9743" x2="286" y2="179.9743" gradientUnits="userSpaceOnUse" id="color-1"><stop offset="0" stop-color="#66d6ff"/><stop offset="1" stop-color="#0088ff"/></linearGradient><linearGradient x1="194" y1="179.99994" x2="286" y2="179.99994" gradientUnits="userSpaceOnUse" id="color-2"><stop offset="0" stop-color="#66d6ff"/><stop offset="1" stop-color="#0088ff"/></linearGradient><linearGradient x1="194" y1="179.99994" x2="286" y2="179.99994" gradientUnits="userSpaceOnUse" id="color-3"><stop offset="0" stop-color="#66d6ff"/><stop offset="1" stop-color="#0088ff"/></linearGradient><linearGradient x1="194" y1="179.99994" x2="286" y2="179.99994" gradientUnits="userSpaceOnUse" id="color-4"><stop offset="0" stop-color="#66d6ff"/><stop offset="1" stop-color="#0088ff"/></linearGradient></defs><g transform="translate(-60.39428,0)"><g data-paper-data="{&quot;isPaintingLayer&quot;:true}" fill-rule="nonzero" stroke="none" stroke-width="0" stroke-linecap="butt" stroke-linejoin="miter" stroke-miterlimit="10" stroke-dasharray="" stroke-dashoffset="0" style="mix-blend-mode: normal"><path d="M60.39428,360v-360h359.21143v360z" fill="#000000"/><path d="M194,179.05801c0,0 0,-32.01428 0,-37.63994c0,-4.33704 3.04347,-7.44372 7.33126,-7.44372c5.50087,0 37.66127,0 37.66127,0l0.0093,45.01461z" fill="url(#color-1)"/><path d="M194,217.34372c0,-8.60999 0,-36.32151 0,-36.32151l44.9619,0.04208l0.01923,44.9357c0,0 -28.32452,0 -37.07486,0c-5.56778,0 -7.90626,-3.32147 -7.90626,-8.65628z" fill="url(#color-2)"/><path d="M286,181.01444c0,0 0,28.22898 0,36.90428c0,5.33194 -3.20544,8.08128 -7.61874,8.08128c-5.60084,0 -37.36355,0 -37.36355,0l-0.01641,-44.97362z" fill="url(#color-3)"/><path d="M241.0141,134c0,0 27.91095,0 36.79216,0c6.06854,0 8.19374,3.18612 8.19374,8.01872c0,5.73179 0,36.92833 0,36.92833l-44.95731,0.03638z" fill="url(#color-4)"/></g></g></svg>